<svg width="1241" height="581" viewBox="0 0 1241 581" fill="none" xmlns="http://www.w3.org/2000/svg">
<g opacity="0.2">
<path d="M1241 473.725L442.576 1328.36L444.222 1330L1241 477.014V473.725Z" fill="#ABABAB"/>
<path d="M1241 328.035L306.489 1328.35L308.135 1330L1241 331.325V328.035Z" fill="#ABABAB"/>
<path d="M1241 400.88L374.415 1328.36L376.296 1330L1241 404.17V400.88Z" fill="#ABABAB"/>
<path d="M1241 455.396L425.419 1328.35L427.299 1330L1241 458.92V455.396Z" fill="#ABABAB"/>
<path d="M1241 418.974L391.573 1328.36L393.218 1330L1241 422.498V418.974Z" fill="#ABABAB"/>
<path d="M1241 346.129L323.412 1328.36L325.057 1330L1241 349.654V346.129Z" fill="#ABABAB"/>
<path d="M1241 382.551L357.493 1328.36L359.138 1330L1241 386.076V382.551Z" fill="#ABABAB"/>
<path d="M1241 364.458L340.335 1328.35L342.215 1330L1241 367.747V364.458Z" fill="#ABABAB"/>
<path d="M1241 564.897L527.66 1328.36L529.305 1330L1241 568.187V564.897Z" fill="#ABABAB"/>
<path d="M1241 491.818L459.499 1328.35L461.379 1330L1241 495.343V491.818Z" fill="#ABABAB"/>
<path d="M1241 510.146L476.657 1328.35L478.302 1330L1241 513.671V510.146Z" fill="#ABABAB"/>
<path d="M1241 528.24L493.58 1328.36L495.225 1330L1241 531.765V528.24Z" fill="#ABABAB"/>
<path d="M1241 546.569L510.737 1328.35L512.383 1330L1241 550.094V546.569Z" fill="#ABABAB"/>
<path d="M1241 254.956L238.328 1328.36L239.974 1330L1241 258.481V254.956Z" fill="#ABABAB"/>
<path d="M1241 109.267L102.241 1328.35L103.887 1330L1241 112.791V109.267Z" fill="#ABABAB"/>
<path d="M1241 145.689L136.087 1328.35L137.967 1330L1241 149.214V145.689Z" fill="#ABABAB"/>
<path d="M1241 309.707L289.332 1328.36L290.977 1330L1241 313.231V309.707Z" fill="#ABABAB"/>
<path d="M1241 72.8447L68.161 1328.36L69.8062 1330L1241 76.3695V72.8447Z" fill="#ABABAB"/>
<path d="M1241 91.1733L85.0837 1328.36L86.729 1330L1241 94.4631V91.1733Z" fill="#ABABAB"/>
<path d="M1241 54.751L51.0032 1328.36L52.8835 1330L1241 58.0407V54.751Z" fill="#ABABAB"/>
<path d="M1241 18.3286L16.9227 1328.36L18.803 1330L1241 21.6184V18.3286Z" fill="#ABABAB"/>
<path d="M1241 0L0 1328.36L1.64527 1330L1241 3.52473V0Z" fill="#ABABAB"/>
<path d="M1241 36.4224L34.0805 1328.36L35.7258 1330L1241 39.9471V36.4224Z" fill="#ABABAB"/>
<path d="M1241 127.595L119.164 1328.35L120.809 1330L1241 130.885V127.595Z" fill="#ABABAB"/>
<path d="M1241 273.285L255.251 1328.36L257.131 1330L1241 276.809V273.285Z" fill="#ABABAB"/>
<path d="M1241 236.862L221.171 1328.36L223.051 1330L1241 240.387V236.862Z" fill="#ABABAB"/>
<path d="M1241 291.613L272.409 1328.36L274.054 1330L1241 294.903V291.613Z" fill="#ABABAB"/>
<path d="M1241 164.018L153.245 1328.35L154.89 1330L1241 167.307V164.018Z" fill="#ABABAB"/>
<path d="M1241 182.111L170.167 1328.36L171.813 1330L1241 185.636V182.111Z" fill="#ABABAB"/>
<path d="M1241 218.534L204.248 1328.36L205.893 1330L1241 222.058V218.534Z" fill="#ABABAB"/>
<path d="M1241 200.44L187.325 1328.36L188.97 1330L1241 203.73V200.44Z" fill="#ABABAB"/>
<path d="M1241 437.302L408.496 1328.36L410.141 1330L1241 440.592V437.302Z" fill="#ABABAB"/>
</g>
</svg>
