<svg width="1503" height="820" viewBox="0 0 1503 820" fill="none" xmlns="http://www.w3.org/2000/svg">
<path d="M-9 577.309L963.777 1618.81L961.773 1620.82L-9 581.318V577.309Z" fill="#EFEFEF"/>
<path d="M-8.99994 399.764L1129.58 1618.81L1127.58 1620.82L-8.99994 403.773V399.764Z" fill="#EFEFEF"/>
<path d="M-9.00003 488.536L1046.82 1618.81L1044.53 1620.82L-9.00003 492.545V488.536Z" fill="#EFEFEF"/>
<path d="M-9.00006 554.973L984.682 1618.81L982.391 1620.82L-9.00006 559.268V554.973Z" fill="#EFEFEF"/>
<path d="M-9.00006 510.586L1025.92 1618.81L1023.91 1620.82L-9.00006 514.882V510.586Z" fill="#EFEFEF"/>
<path d="M-9 421.814L1108.96 1618.81L1106.96 1620.82L-9 426.109V421.814Z" fill="#EFEFEF"/>
<path d="M-9.00003 466.2L1067.44 1618.81L1065.44 1620.82L-9.00003 470.495V466.2Z" fill="#EFEFEF"/>
<path d="M-9 444.15L1088.35 1618.81L1086.05 1620.82L-9 448.159V444.15Z" fill="#EFEFEF"/>
<path d="M-8.99988 710.468L839.495 1618.81L837.205 1620.82L-8.99988 714.764V710.468Z" fill="#EFEFEF"/>
<path d="M-9 732.805L818.591 1618.81L816.586 1620.82L-9 736.814V732.805Z" fill="#EFEFEF"/>
<path d="M-9 688.418L860.114 1618.81L858.109 1620.82L-9 692.427V688.418Z" fill="#EFEFEF"/>
<path d="M-9 777.191L777.068 1618.81L775.064 1620.82L-9 781.2V777.191Z" fill="#EFEFEF"/>
<path d="M-9 599.359L943.159 1618.81L940.868 1620.82L-9 603.655V599.359Z" fill="#EFEFEF"/>
<path d="M-9 754.855L797.973 1618.81L795.682 1620.82L-9 759.15V754.855Z" fill="#EFEFEF"/>
<path d="M-9 621.695L922.255 1618.81L920.25 1620.82L-9 625.991V621.695Z" fill="#EFEFEF"/>
<path d="M-9 643.745L901.636 1618.81L899.632 1620.82L-9 648.041V643.745Z" fill="#EFEFEF"/>
<path d="M-9.00006 666.082L880.732 1618.81L878.727 1620.82L-9.00006 670.377V666.082Z" fill="#EFEFEF"/>
<path d="M-9.00006 310.705L1212.63 1618.81L1210.62 1620.82L-9.00006 315V310.705Z" fill="#EFEFEF"/>
<path d="M-8.99994 133.159L1378.43 1618.81L1376.43 1620.82L-8.99994 137.455V133.159Z" fill="#EFEFEF"/>
<path d="M-9 177.545L1337.2 1618.81L1334.9 1620.82L-9 181.841V177.545Z" fill="#EFEFEF"/>
<path d="M-8.99997 377.427L1150.49 1618.81L1148.48 1620.82L-8.99997 381.723V377.427Z" fill="#EFEFEF"/>
<path d="M-9.00006 88.7727L1419.95 1618.81L1417.95 1620.82L-9.00006 93.0682V88.7727Z" fill="#EFEFEF"/>
<path d="M-8.99994 111.109L1399.34 1618.81L1397.33 1620.82L-8.99994 115.118V111.109Z" fill="#EFEFEF"/>
<path d="M-8.99994 66.7227L1440.86 1618.81L1438.57 1620.82L-8.99994 70.7318V66.7227Z" fill="#EFEFEF"/>
<path d="M-9 22.3364L1482.38 1618.81L1480.09 1620.82L-9 26.3455V22.3364Z" fill="#EFEFEF"/>
<path d="M-9 0L1503 1618.81L1501 1620.82L-9 4.29545V0Z" fill="#EFEFEF"/>
<path d="M-9 44.3864L1461.48 1618.81L1459.47 1620.82L-9 48.6818V44.3864Z" fill="#EFEFEF"/>
<path d="M-9 155.495L1357.81 1618.81L1355.81 1620.82L-9 159.505V155.495Z" fill="#EFEFEF"/>
<path d="M-8.99994 333.041L1192.01 1618.81L1189.72 1620.82L-8.99994 337.336V333.041Z" fill="#EFEFEF"/>
<path d="M-9 799.241L756.45 1618.81L754.445 1620.82L-9 803.536V799.241Z" fill="#EFEFEF"/>
<path d="M-9 288.655L1233.53 1618.81L1231.24 1620.82L-9 292.95V288.655Z" fill="#EFEFEF"/>
<path d="M-9.00006 355.377L1171.1 1618.81L1169.1 1620.82L-9.00006 359.386V355.377Z" fill="#EFEFEF"/>
<path d="M-9 199.882L1316.29 1618.81L1314.29 1620.82L-9 203.891V199.882Z" fill="#EFEFEF"/>
<path d="M-9 221.932L1295.67 1618.81L1293.67 1620.82L-9 226.227V221.932Z" fill="#EFEFEF"/>
<path d="M-9 266.318L1254.15 1618.81L1252.15 1620.82L-9 270.614V266.318Z" fill="#EFEFEF"/>
<path d="M-9 244.268L1274.77 1618.81L1272.76 1620.82L-9 248.277V244.268Z" fill="#EFEFEF"/>
<path d="M-9.00012 532.923L1005.3 1618.81L1003.3 1620.82L-9.00012 536.932V532.923Z" fill="#EFEFEF"/>
</svg>
