<svg width="18" height="18" viewBox="0 0 18 18" fill="none" xmlns="http://www.w3.org/2000/svg">
<path d="M10.2156 12.4044C10.3808 12.4803 10.567 12.4976 10.7434 12.4536C10.9197 12.4095 11.0759 12.3067 11.186 12.162L11.47 11.79C11.619 11.5913 11.8123 11.43 12.0345 11.3189C12.2566 11.2078 12.5016 11.15 12.75 11.15H15.15C15.5743 11.15 15.9813 11.3186 16.2814 11.6186C16.5814 11.9187 16.75 12.3257 16.75 12.75V15.15C16.75 15.5743 16.5814 15.9813 16.2814 16.2814C15.9813 16.5814 15.5743 16.75 15.15 16.75C11.3309 16.75 7.66819 15.2329 4.96766 12.5323C2.26714 9.83181 0.75 6.16912 0.75 2.35C0.75 1.92565 0.918571 1.51869 1.21863 1.21863C1.51869 0.918571 1.92565 0.75 2.35 0.75H4.75C5.17435 0.75 5.58131 0.918571 5.88137 1.21863C6.18143 1.51869 6.35 1.92565 6.35 2.35V4.75C6.35 4.99839 6.29217 5.24337 6.18108 5.46554C6.07 5.68771 5.90871 5.88097 5.71 6.03L5.3356 6.3108C5.18873 6.42294 5.08522 6.58247 5.04263 6.76228C5.00005 6.94209 5.02103 7.1311 5.102 7.2972C6.19534 9.51789 7.99354 11.3138 10.2156 12.4044Z" stroke="white" stroke-width="1.5" stroke-linecap="round" stroke-linejoin="round"/>
</svg>
