<svg width="1512" height="335" viewBox="0 0 1512 335" fill="none" xmlns="http://www.w3.org/2000/svg">
<g opacity="0.1">
<path d="M1512 310.705L290.373 1618.81L292.377 1620.82L1512 315V310.705Z" fill="#395AFF"/>
<path d="M1512 133.159L124.568 1618.81L126.573 1620.82L1512 137.455V133.159Z" fill="#395AFF"/>
<path d="M1512 177.545L165.805 1618.81L168.095 1620.82L1512 181.841V177.545Z" fill="#395AFF"/>
<path d="M1512 88.7727L83.0455 1618.81L85.05 1620.82L1512 93.0682V88.7727Z" fill="#395AFF"/>
<path d="M1512 111.109L103.664 1618.81L105.668 1620.82L1512 115.118V111.109Z" fill="#395AFF"/>
<path d="M1512 66.7227L62.1409 1618.81L64.4318 1620.82L1512 70.7318V66.7227Z" fill="#395AFF"/>
<path d="M1512 22.3364L20.6182 1618.81L22.9091 1620.82L1512 26.3455V22.3364Z" fill="#395AFF"/>
<path d="M1512 0L0 1618.81L2.00455 1620.82L1512 4.29545V0Z" fill="#395AFF"/>
<path d="M1512 44.3864L41.5227 1618.81L43.5273 1620.82L1512 48.6818V44.3864Z" fill="#395AFF"/>
<path d="M1512 155.495L145.186 1618.81L147.191 1620.82L1512 159.505V155.495Z" fill="#395AFF"/>
<path d="M1512 333.041L310.991 1618.81L313.282 1620.82L1512 337.336V333.041Z" fill="#395AFF"/>
<path d="M1512 288.655L269.468 1618.81L271.759 1620.82L1512 292.95V288.655Z" fill="#395AFF"/>
<path d="M1512 199.882L186.709 1618.81L188.714 1620.82L1512 203.891V199.882Z" fill="#395AFF"/>
<path d="M1512 221.932L207.327 1618.81L209.332 1620.82L1512 226.227V221.932Z" fill="#395AFF"/>
<path d="M1512 266.318L248.85 1618.81L250.855 1620.82L1512 270.614V266.318Z" fill="#395AFF"/>
<path d="M1512 244.268L228.232 1618.81L230.236 1620.82L1512 248.277V244.268Z" fill="#395AFF"/>
</g>
</svg>
