<svg width="1352" height="255" viewBox="0 0 1352 255" fill="none" xmlns="http://www.w3.org/2000/svg">
<path d="M6.10352e-05 133.159L1387.43 1618.81L1385.43 1620.82L6.10352e-05 137.455V133.159Z" fill="#EFEFEF"/>
<path d="M0 177.545L1346.2 1618.81L1343.9 1620.82L0 181.841V177.545Z" fill="#EFEFEF"/>
<path d="M-6.10352e-05 88.7727L1428.95 1618.81L1426.95 1620.82L-6.10352e-05 93.0682V88.7727Z" fill="#EFEFEF"/>
<path d="M6.10352e-05 111.109L1408.34 1618.81L1406.33 1620.82L6.10352e-05 115.118V111.109Z" fill="#EFEFEF"/>
<path d="M9.15527e-05 66.7227L1449.86 1618.81L1447.57 1620.82L9.15527e-05 70.7318V66.7227Z" fill="#EFEFEF"/>
<path d="M-3.05176e-05 22.3364L1491.38 1618.81L1489.09 1620.82L-3.05176e-05 26.3455V22.3364Z" fill="#EFEFEF"/>
<path d="M0 0L1512 1618.81L1510 1620.82L0 4.29545V0Z" fill="#EFEFEF"/>
<path d="M-3.05176e-05 44.3864L1470.48 1618.81L1468.47 1620.82L-3.05176e-05 48.6818V44.3864Z" fill="#EFEFEF"/>
<path d="M3.05176e-05 155.495L1366.81 1618.81L1364.81 1620.82L3.05176e-05 159.505V155.495Z" fill="#EFEFEF"/>
<path d="M3.05176e-05 199.882L1325.29 1618.81L1323.29 1620.82L3.05176e-05 203.891V199.882Z" fill="#EFEFEF"/>
<path d="M0 221.932L1304.67 1618.81L1302.67 1620.82L0 226.227V221.932Z" fill="#EFEFEF"/>
<path d="M0 244.268L1283.77 1618.81L1281.76 1620.82L0 248.277V244.268Z" fill="#EFEFEF"/>
</svg>
