<!DOCTYPE svg PUBLIC "-//W3C//DTD SVG 1.1//EN" "http://www.w3.org/Graphics/SVG/1.1/DTD/svg11.dtd">

<!-- Uploaded to: SVG Repo, www.svgrepo.com, Transformed by: SVG Repo Mixer Tools -->
<svg fill="#000000" width="32px" height="32px" viewBox="0 0 24 24" id="download-alt-2" data-name="Flat Color" xmlns="http://www.w3.org/2000/svg" class="icon flat-color">

<g id="SVGRepo_bgCarrier" stroke-width="0"/>

<g id="SVGRepo_tracerCarrier" stroke-linecap="round" stroke-linejoin="round"/>

<g id="SVGRepo_iconCarrier">

<path id="secondary" d="M15.82,17.43a1,1,0,0,0-1.41,0L13,18.84V12a1,1,0,0,0-2,0v6.7L9.59,17.29a1,1,0,0,0-1.41,0,1,1,0,0,0,0,1.42l3.18,3.18a1,1,0,0,0,1.42,0l3-3A1,1,0,0,0,15.82,17.43Z" style="fill: #395aff;"/>

<path id="primary" d="M22,12a5,5,0,0,1-5,5h-.24a1.49,1.49,0,0,0-.23-.27A2,2,0,0,0,14,16.48V12a2,2,0,0,0-4,0v4.34a2,2,0,0,0-2.53.25.39.39,0,0,0-.08.1A7.5,7.5,0,1,1,16.58,7c.14,0,.28,0,.42,0A5,5,0,0,1,22,12Z" style="fill: #ff555e;"/>

</g>

</svg>