<svg width="1241" height="176" viewBox="0 0 1241 176" fill="none" xmlns="http://www.w3.org/2000/svg">
<g opacity="0.2">
<path d="M1241 109.267L102.241 1328.36L103.887 1330L1241 112.792V109.267Z" fill="#ABABAB"/>
<path d="M1241 145.689L136.087 1328.35L137.967 1330L1241 149.214V145.689Z" fill="#ABABAB"/>
<path d="M1241 72.8445L68.161 1328.36L69.8062 1330L1241 76.3693V72.8445Z" fill="#ABABAB"/>
<path d="M1241 91.1732L85.0837 1328.36L86.729 1330L1241 94.4629V91.1732Z" fill="#ABABAB"/>
<path d="M1241 54.7509L51.0032 1328.36L52.8835 1330L1241 58.0406V54.7509Z" fill="#ABABAB"/>
<path d="M1241 18.3286L16.9227 1328.36L18.803 1330L1241 21.6184V18.3286Z" fill="#ABABAB"/>
<path d="M1241 0L0 1328.36L1.64527 1330L1241 3.52473V0Z" fill="#ABABAB"/>
<path d="M1241 36.4222L34.0805 1328.35L35.7258 1330L1241 39.947V36.4222Z" fill="#ABABAB"/>
<path d="M1241 127.595L119.164 1328.36L120.809 1330L1241 130.885V127.595Z" fill="#ABABAB"/>
<path d="M1241 164.018L153.245 1328.36L154.89 1330L1241 167.307V164.018Z" fill="#ABABAB"/>
</g>
</svg>
