<svg width="24" height="24" viewBox="0 0 24 24" fill="none" xmlns="http://www.w3.org/2000/svg">
<path fill-rule="evenodd" clip-rule="evenodd" d="M0.0621033 10.7956C0.666008 4.69275 6.20374 -0.659889 13.1327 0.0662355C19.4031 0.723232 24.6057 6.12505 23.9429 13.1509C23.3514 19.4225 17.7777 24.611 10.8446 23.9417C4.6183 23.3406 -0.634205 17.834 0.0621738 10.7956H0.0621033ZM4.34283 15.6837C4.45695 17.7825 6.02419 19.4019 8.03456 19.6214C9.78338 19.8124 13.8608 19.7496 15.6909 19.6435C17.7643 19.5233 19.4211 17.9711 19.6318 15.9839C19.8239 14.1737 19.7415 10.2208 19.6525 8.31347C19.555 6.22171 17.9647 4.61772 15.9599 4.38652C14.2214 4.18609 10.2157 4.29604 8.32991 4.36776C6.24583 4.44694 4.5918 6.04201 4.36856 8.0059C4.17306 9.7256 4.2441 13.8672 4.34291 15.6837L4.34283 15.6837Z" fill="white"/>
<path fill-rule="evenodd" clip-rule="evenodd" d="M7.96548 5.74695C9.26485 5.50037 12.7412 5.6833 14.2649 5.6819C19.424 5.67712 18.3341 8.48179 18.3393 14.2541C18.3439 19.4234 15.5794 18.3162 9.67319 18.3229C7.52854 18.3254 6.08104 17.9501 5.71838 15.9954C5.49358 14.7835 5.67298 11.218 5.67235 9.74274C5.67137 7.58882 6.00705 6.11865 7.96541 5.74695H7.96548ZM11.0978 16.0812C16.4496 17.2426 18.294 9.143 12.789 7.92497C7.56087 6.76813 5.72393 14.9148 11.0978 16.0812ZM7.47823 8.6962C8.51774 9.20862 9.38368 7.67052 8.22879 7.11975C7.21879 6.63796 6.49276 8.21041 7.47823 8.6962Z" fill="white"/>
<path fill-rule="evenodd" clip-rule="evenodd" d="M12.4449 9.31336C16.094 9.95441 15.0529 15.3476 11.5087 14.7273C8.0073 14.1147 8.8797 8.687 12.4449 9.31336Z" fill="white"/>
</svg>
