<svg width="24" height="24" viewBox="0 0 24 24" fill="none" xmlns="http://www.w3.org/2000/svg">
<path d="M11.9648 0C18.5725 0.000163116 23.9287 5.35719 23.9287 11.9648C23.9287 18.5725 18.5725 23.9295 11.9648 23.9297C5.35707 23.9297 0 18.5726 0 11.9648C1.77169e-05 5.35709 5.35708 0 11.9648 0ZM8.04004 9.05664C7.17674 9.06499 6.31268 9.06313 5.44922 9.05762C5.31582 9.05679 5.28516 9.10198 5.28516 9.22754C5.28833 12.2605 5.28916 15.2941 5.28516 18.3271C5.28507 18.4678 5.32591 18.5019 5.46191 18.501C6.31302 18.4951 7.16452 18.4926 8.01562 18.502C8.18792 18.504 8.22918 18.4536 8.22852 18.2871C8.22251 16.7892 8.22559 15.2909 8.22559 13.793C8.22559 12.2825 8.22336 10.772 8.22754 9.26172C8.22803 9.11977 8.20546 9.05508 8.04004 9.05664ZM15.6621 8.8252C14.8052 8.81785 14.0707 9.11249 13.4502 9.69727C13.2485 9.88744 13.0871 10.1123 12.8906 10.333C12.8906 9.97099 12.8852 9.60794 12.8936 9.24609C12.8967 9.10448 12.8575 9.05633 12.708 9.05762C11.8937 9.0648 11.079 9.06363 10.2646 9.05762C10.1231 9.05662 10.0741 9.09159 10.0742 9.24121C10.0781 12.2693 10.0781 15.2981 10.0742 18.3262C10.0741 18.4649 10.1135 18.502 10.251 18.501C11.1086 18.4948 11.9666 18.4935 12.8242 18.501C12.9796 18.5024 13.018 18.4577 13.0176 18.3057C13.0121 16.7761 13.015 15.2462 13.0137 13.7168C13.0135 13.4699 13.0279 13.2245 13.0586 12.9795C13.1873 11.9526 13.7123 11.4528 14.7217 11.3994C15.4611 11.3603 15.9662 11.7199 16.1699 12.4258C16.2804 12.8089 16.3063 13.2027 16.3076 13.5967C16.3128 15.1692 16.3113 16.7419 16.3066 18.3145C16.3061 18.4561 16.3385 18.5023 16.4883 18.501C17.3397 18.4936 18.1916 18.494 19.043 18.501C19.1948 18.5022 19.2385 18.4619 19.2383 18.3076C19.2346 16.655 19.2421 15.0014 19.2393 13.3486C19.2379 12.5651 19.1981 11.7841 18.9824 11.0234C18.6946 10.0092 18.0909 9.29443 17.0527 8.99414C16.5988 8.86292 16.1329 8.82921 15.6621 8.8252ZM6.7627 4.36133C5.82609 4.36033 5.05656 5.13111 5.05957 6.06738C5.06301 6.99305 5.83274 7.76005 6.75879 7.75977C7.69694 7.7596 8.46077 6.99301 8.45996 6.05273C8.45913 5.12609 7.69248 4.36233 6.7627 4.36133Z" fill="white"/>
</svg>
