<svg width="42" height="53" viewBox="0 0 42 53" fill="none" xmlns="http://www.w3.org/2000/svg">
<path d="M39.9326 12.0148C36.4485 4.71869 29.268 0.107848 21.1855 0.00185145C13.0854 -0.104145 5.90487 4.3477 2.29694 11.6614C-1.45247 19.2402 -0.568176 28.0202 4.63148 34.6096L18.0551 51.6397C18.7448 52.5053 19.7706 53 20.8672 53C21.9637 53 22.9895 52.5053 23.6792 51.6397L37.4566 34.1503C42.4617 27.7905 43.399 19.3285 39.9326 12.0324V12.0148ZM34.6976 31.9597L20.8495 49.4491L7.42586 32.4191C3.09281 26.9249 2.35 19.5582 5.48041 13.2337C8.48702 7.1566 14.2349 3.55273 20.8848 3.55273H21.1501C27.9769 3.65872 33.8133 7.38626 36.7491 13.5517C39.685 19.7172 38.9245 26.5893 34.6976 31.9597Z" fill="#D4121D"/>
<path d="M20.8397 11.0369C15.4881 11.0369 11.1322 15.3225 11.1322 20.5877C11.1322 25.8529 15.4881 30.1385 20.8397 30.1385C26.1912 30.1385 30.5471 25.8529 30.5471 20.5877C30.5471 15.3225 26.1912 11.0369 20.8397 11.0369ZM20.8397 26.6226C17.4439 26.6226 14.6881 23.9112 14.6881 20.5702C14.6881 17.2292 17.4439 14.5179 20.8397 14.5179C24.2355 14.5179 26.9913 17.2292 26.9913 20.5702C26.9913 23.9112 24.2355 26.6226 20.8397 26.6226Z" fill="#D4121D"/>
</svg>
