<!DOCTYPE svg PUBLIC "-//W3C//DTD SVG 1.1//EN" "http://www.w3.org/Graphics/SVG/1.1/DTD/svg11.dtd">

<!-- Uploaded to: SVG Repo, www.svgrepo.com, Transformed by: SVG Repo Mixer Tools -->
<svg fill="#000000" width="32px" height="32px" viewBox="0 0 24 24" id="sign-out-5" data-name="Flat Color" xmlns="http://www.w3.org/2000/svg" class="icon flat-color">

<g id="SVGRepo_bgCarrier" stroke-width="0"/>

<g id="SVGRepo_tracerCarrier" stroke-linecap="round" stroke-linejoin="round"/>

<g id="SVGRepo_iconCarrier">

<path id="secondary" d="M21.62,11.31,18.5,9.17a1,1,0,0,0-1.5.69V11H7a1,1,0,0,0,0,2H17v1.14a1,1,0,0,0,1.5.69l3.12-2.14A.82.82,0,0,0,21.62,11.31Z" style="fill: #395aff;"/>

<path id="primary" d="M7,21H4a2,2,0,0,1-2-2V5A2,2,0,0,1,4,3H7A1,1,0,0,1,7,5H4V19H7a1,1,0,0,1,0,2Z" style="fill: #ff555e;"/>

</g>

</svg>