<svg width="1512" height="443" viewBox="0 0 1512 443" fill="none" xmlns="http://www.w3.org/2000/svg">
<path d="M6.10352e-05 43.2364L1138.58 -1175.81L1136.58 -1177.82L6.10352e-05 39.2273V43.2364Z" fill="#EFEFEF"/>
<path d="M0 21.1863L1117.96 -1175.81L1115.96 -1177.82L0 16.8909V21.1863Z" fill="#EFEFEF"/>
<path d="M-6.10352e-05 132.295L1221.63 -1175.81L1219.62 -1177.82L-6.10352e-05 128V132.295Z" fill="#EFEFEF"/>
<path d="M6.10352e-05 309.841L1387.43 -1175.81L1385.43 -1177.82L6.10352e-05 305.545V309.841Z" fill="#EFEFEF"/>
<path d="M0 265.455L1346.2 -1175.81L1343.9 -1177.82L0 261.159V265.455Z" fill="#EFEFEF"/>
<path d="M3.05176e-05 65.5727L1159.49 -1175.81L1157.48 -1177.82L3.05176e-05 61.2773V65.5727Z" fill="#EFEFEF"/>
<path d="M-6.10352e-05 354.227L1428.95 -1175.81L1426.95 -1177.82L-6.10352e-05 349.932V354.227Z" fill="#EFEFEF"/>
<path d="M6.10352e-05 331.891L1408.34 -1175.81L1406.33 -1177.82L6.10352e-05 327.882V331.891Z" fill="#EFEFEF"/>
<path d="M6.10352e-05 376.277L1449.86 -1175.81L1447.57 -1177.82L6.10352e-05 372.268V376.277Z" fill="#EFEFEF"/>
<path d="M0 420.664L1491.38 -1175.81L1489.09 -1177.82L0 416.655V420.664Z" fill="#EFEFEF"/>
<path d="M0 443L1512 -1175.81L1510 -1177.82L0 438.705V443Z" fill="#EFEFEF"/>
<path d="M0 398.614L1470.48 -1175.81L1468.47 -1177.82L0 394.318V398.614Z" fill="#EFEFEF"/>
<path d="M0 287.505L1366.81 -1175.81L1364.81 -1177.82L0 283.495V287.505Z" fill="#EFEFEF"/>
<path d="M6.10352e-05 109.959L1201.01 -1175.81L1198.72 -1177.82L6.10352e-05 105.664V109.959Z" fill="#EFEFEF"/>
<path d="M-3.05176e-05 154.345L1242.53 -1175.81L1240.24 -1177.82L-3.05176e-05 150.05V154.345Z" fill="#EFEFEF"/>
<path d="M-6.10352e-05 87.6227L1180.1 -1175.81L1178.1 -1177.82L-6.10352e-05 83.6136V87.6227Z" fill="#EFEFEF"/>
<path d="M0 243.118L1325.29 -1175.81L1323.29 -1177.82L0 239.109V243.118Z" fill="#EFEFEF"/>
<path d="M0 221.068L1304.67 -1175.81L1302.67 -1177.82L0 216.773V221.068Z" fill="#EFEFEF"/>
<path d="M-3.05176e-05 176.682L1263.15 -1175.81L1261.15 -1177.82L-3.05176e-05 172.386V176.682Z" fill="#EFEFEF"/>
<path d="M0 198.732L1283.77 -1175.81L1281.76 -1177.82L0 194.723V198.732Z" fill="#EFEFEF"/>
</svg>
