<svg width="24" height="24" viewBox="0 0 24 24" fill="none" xmlns="http://www.w3.org/2000/svg">
<path d="M12 0C18.6273 0 24 5.37266 24 12C24 13.6567 23.6639 15.2352 23.0566 16.6709C21.235 20.9779 16.9703 24 12 24C5.37266 24 0 18.6273 0 12C6.13798e-08 10.3433 0.336149 8.76479 0.943359 7.3291C2.76502 3.0221 7.02942 1.84111e-07 12 0ZM5.70605 5.53809L10.7041 12.8506L5.92383 18.4619H7.08887L11.2188 13.6045L14.5391 18.4609H18.2939L13.2754 11.1855L18.0762 5.53809H16.9326L12.7588 10.4375L9.37988 5.53809H5.70605ZM8.9502 6.35645L12.21 11.082L12.7266 11.8311L16.7354 17.6426H14.9707L11.7686 12.958L11.2539 12.2051L7.25684 6.35645H8.9502Z" fill="white"/>
</svg>
