<svg width="24" height="24" viewBox="0 0 24 24" fill="none" xmlns="http://www.w3.org/2000/svg">
<path d="M14.4917 16.6294C14.2712 16.6845 14.0385 16.6628 13.832 16.568C11.0544 15.2048 8.80668 12.9599 7.44 10.184C7.33878 9.97638 7.31256 9.74012 7.36579 9.51535C7.41902 9.29059 7.54842 9.09118 7.732 8.951L8.2 8.6C8.44839 8.41371 8.65 8.17214 8.78885 7.89443C8.92771 7.61672 9 7.31049 9 7V4C9 3.46957 8.78929 2.96086 8.41421 2.58579C8.03914 2.21071 7.53043 2 7 2H4C3.46957 2 2.96086 2.21071 2.58579 2.58579C2.21071 2.96086 2 3.46957 2 4C2 8.7739 3.89642 13.3523 7.27208 16.7279C10.6477 20.1036 15.2261 22 20 22C20.5304 22 21.0391 21.7893 21.4142 21.4142C21.7893 21.0391 22 20.5304 22 20V17C22 16.4696 21.7893 15.9609 21.4142 15.5858C21.0391 15.2107 20.5304 15 20 15H17C16.6895 15 16.3833 15.0723 16.1056 15.2111C15.8279 15.35 15.5863 15.5516 15.4 15.8L15.045 16.265C14.9073 16.4458 14.7122 16.5744 14.4917 16.6294Z" stroke="#FF555E" stroke-width="2" stroke-linecap="round" stroke-linejoin="round"/>
</svg>
