<svg width="24" height="24" viewBox="0 0 24 24" fill="none" xmlns="http://www.w3.org/2000/svg">
<path d="M13.0002 21.0004H21.0002M15.0002 5.00037L19.0002 9.00037M21.1742 6.81237C21.7029 6.28379 22 5.56683 22.0001 4.81922C22.0002 4.07161 21.7033 3.35457 21.1747 2.82587C20.6462 2.29716 19.9292 2.00008 19.1816 1.99998C18.434 1.99989 17.7169 2.29679 17.1882 2.82537L3.84224 16.1744C3.61006 16.4059 3.43835 16.6909 3.34224 17.0044L2.02124 21.3564C1.99539 21.4428 1.99344 21.5347 2.01559 21.6222C2.03774 21.7097 2.08316 21.7896 2.14704 21.8534C2.21091 21.9171 2.29086 21.9624 2.3784 21.9844C2.46594 22.0064 2.5578 22.0044 2.64424 21.9784L6.99724 20.6584C7.31041 20.5631 7.59541 20.3925 7.82724 20.1614L21.1742 6.81237Z" stroke="#FF555E" stroke-width="2" stroke-linecap="round" stroke-linejoin="round"/>
</svg>
